# xmcd CD database file
#
# Track frame offsets:
#	150
#	29234
#	54998
#	59895
#	81172
#	107356
#	114488
#	135015
#	163559
#	188498
#	217286
#	244708
#	250353
#
# Disc length: 3548 seconds
#
# Revision: 0
# Processed by: cddbd v1.5.1PL2 Copyright (c) Steve Scherf et al.
# Submitted via: CDex 1.51
#
DISCID=b40dda0d
DTITLE=Nardy Castellini - Identity
DYEAR=2001
DGENRE=Jazz
TTITLE0=un domingo en el solar
TTITLE1=el camino
TTITLE2=kumbachíkata #1
TTITLE3=un, dos, tres... ah!!!
TTITLE4=gé gé
TTITLE5=fifty-fifty con tata (part 1)
TTITLE6=fifty fifty con tata (part 2)
TTITLE7=the hersey's train
TTITLE8=late at night, lejos
TTITLE9=día tras día
TTITLE10=conga pa´ ti
TTITLE11=kumbachíkata #2 (...nacer!)
TTITLE12=finalmente...
EXTD=YEAR: 2001
EXTT0=
EXTT1=
EXTT2=
EXTT3=
EXTT4=
EXTT5=
EXTT6=
EXTT7=
EXTT8=
EXTT9=
EXTT10=
EXTT11=
EXTT12=
PLAYORDER=
